STARTFONT 2.1
FONT -FontForge-Bree Serif-Book-R-Normal--24-720-24-24-P-124-ISO10646-1
SIZE 72 24 24
FONTBOUNDINGBOX 23 24 -2 -5
COMMENT "Generated by fontforge, http://fontforge.sourceforge.net"
COMMENT "Copyright (c) 2011, TypeTogether (www.type-together.com), with Reserved Font Names "Bree" and "Bree Serif""
STARTPROPERTIES 38
FOUNDRY "FontForge"
FAMILY_NAME "Bree Serif"
WEIGHT_NAME "Book"
SLANT "R"
SETWIDTH_NAME "Normal"
ADD_STYLE_NAME ""
PIXEL_SIZE 24
POINT_SIZE 720
RESOLUTION_X 24
RESOLUTION_Y 24
SPACING "P"
AVERAGE_WIDTH 124
CHARSET_REGISTRY "ISO10646"
CHARSET_ENCODING "1"
FONTNAME_REGISTRY ""
CHARSET_COLLECTIONS "ISO8859-2 ISO8859-9 ISO8859-4 ISO10646-1"
FONT_NAME "BreeSerif-Regular"
FACE_NAME "Bree Serif Regular"
COPYRIGHT "Copyright (c) 2011, TypeTogether (www.type-together.com), with Reserved Font Names "Bree" and "Bree Serif""
FONT_VERSION "1.002"
FONT_ASCENT 19
FONT_DESCENT 5
UNDERLINE_POSITION -2
UNDERLINE_THICKNESS 2
X_HEIGHT 11
CAP_HEIGHT 15
RAW_ASCENT 800
RAW_DESCENT 200
RELATIVE_WEIGHT 40
RELATIVE_SETWIDTH 50
SUPERSCRIPT_X 0
SUPERSCRIPT_Y 11
SUPERSCRIPT_SIZE 15
SUBSCRIPT_X 0
SUBSCRIPT_Y 3
SUBSCRIPT_SIZE 15
AVG_LOWERCASE_WIDTH 125
AVG_UPPERCASE_WIDTH 147
ENDPROPERTIES
CHARS 94
STARTCHAR exclam
ENCODING 33
SWIDTH 277 0
DWIDTH 7 0
BBX 3 17 2 0
BITMAP
40
E0
E0
E0
E0
E0
E0
E0
C0
C0
C0
C0
C0
00
40
E0
E0
ENDCHAR
STARTCHAR quotedbl
ENCODING 34
SWIDTH 349 0
DWIDTH 8 0
BBX 6 6 1 10
BITMAP
EC
EC
CC
CC
4C
4C
ENDCHAR
STARTCHAR numbersign
ENCODING 35
SWIDTH 534 0
DWIDTH 13 0
BBX 12 15 0 0
BITMAP
0CC0
08C0
08C0
08C0
7FF0
7FF0
1880
1880
1980
1980
FFF0
1980
1980
1180
1180
ENDCHAR
STARTCHAR dollar
ENCODING 36
SWIDTH 535 0
DWIDTH 13 0
BBX 11 20 1 -2
BITMAP
0400
0400
0F00
3FC0
7FC0
F4C0
E4C0
F400
7C00
7F00
1FC0
07C0
05E0
E4E0
E5C0
FFC0
FF80
3E00
0400
0400
ENDCHAR
STARTCHAR percent
ENCODING 37
SWIDTH 801 0
DWIDTH 19 0
BBX 17 16 1 0
BITMAP
381000
7C1800
C63000
C63000
C67000
C66000
C6E000
FEC000
7DDF00
01B980
03B180
033180
073180
063180
063B80
0C1F00
ENDCHAR
STARTCHAR ampersand
ENCODING 38
SWIDTH 714 0
DWIDTH 17 0
BBX 15 17 1 -1
BITMAP
0FE0
1FE0
1C60
3860
3840
1C00
1C3E
3E3E
7F18
6798
E3F8
E1F8
E0F0
70FC
7FFE
3FCE
0004
ENDCHAR
STARTCHAR quotesingle
ENCODING 39
SWIDTH 205 0
DWIDTH 5 0
BBX 3 6 1 10
BITMAP
E0
E0
C0
C0
40
40
ENDCHAR
STARTCHAR parenleft
ENCODING 40
SWIDTH 331 0
DWIDTH 8 0
BBX 5 22 2 -4
BITMAP
20
38
38
70
70
60
E0
E0
E0
E0
E0
C0
E0
E0
E0
E0
E0
70
70
70
38
30
ENDCHAR
STARTCHAR parenright
ENCODING 41
SWIDTH 331 0
DWIDTH 8 0
BBX 5 22 1 -4
BITMAP
20
E0
E0
70
70
70
38
38
38
38
38
38
38
38
38
38
38
70
70
60
E0
60
ENDCHAR
STARTCHAR asterisk
ENCODING 42
SWIDTH 452 0
DWIDTH 11 0
BBX 9 8 1 10
BITMAP
1C00
1800
C900
FF80
3F00
3600
7700
6200
ENDCHAR
STARTCHAR plus
ENCODING 43
SWIDTH 535 0
DWIDTH 13 0
BBX 10 10 1 3
BITMAP
0E00
0E00
0E00
0E00
FFC0
FFC0
FFC0
0E00
0E00
0E00
ENDCHAR
STARTCHAR comma
ENCODING 44
SWIDTH 241 0
DWIDTH 6 0
BBX 4 7 1 -4
BITMAP
60
70
E0
E0
C0
C0
40
ENDCHAR
STARTCHAR hyphen
ENCODING 45
SWIDTH 322 0
DWIDTH 8 0
BBX 6 2 1 6
BITMAP
FC
FC
ENDCHAR
STARTCHAR period
ENCODING 46
SWIDTH 226 0
DWIDTH 5 0
BBX 3 3 1 0
BITMAP
E0
E0
E0
ENDCHAR
STARTCHAR slash
ENCODING 47
SWIDTH 428 0
DWIDTH 10 0
BBX 10 21 0 -3
BITMAP
0180
01C0
0180
0380
0380
0700
0700
0700
0E00
0E00
0C00
1C00
1C00
3800
3800
3800
7000
7000
6000
E000
2000
ENDCHAR
STARTCHAR zero
ENCODING 48
SWIDTH 535 0
DWIDTH 13 0
BBX 11 16 1 0
BITMAP
0E00
3F80
7FC0
71C0
E0E0
E0E0
E0E0
E0E0
E0E0
E0E0
E0E0
E0E0
E1C0
71C0
7F80
3F00
ENDCHAR
STARTCHAR one
ENCODING 49
SWIDTH 454 0
DWIDTH 11 0
BBX 9 15 1 0
BITMAP
1E00
7E00
FE00
4E00
0E00
0E00
0E00
0E00
0E00
0E00
0E00
0E00
0E00
7F80
7F80
ENDCHAR
STARTCHAR two
ENCODING 50
SWIDTH 513 0
DWIDTH 12 0
BBX 10 16 1 0
BITMAP
1E00
FF80
FF80
E1C0
E1C0
01C0
0380
0380
0700
0E00
1E00
1C00
3800
7000
FFC0
FFC0
ENDCHAR
STARTCHAR three
ENCODING 51
SWIDTH 522 0
DWIDTH 13 0
BBX 10 16 1 0
BITMAP
1E00
FF80
FFC0
E1C0
E1C0
01C0
0380
1F00
1F80
03C0
01C0
01C0
01C0
43C0
FF80
7F00
ENDCHAR
STARTCHAR four
ENCODING 52
SWIDTH 536 0
DWIDTH 13 0
BBX 11 16 1 0
BITMAP
0800
0E00
1C00
1C00
3800
3980
7180
7380
E380
FFE0
FFE0
FFE0
0380
0380
0FE0
0FE0
ENDCHAR
STARTCHAR five
ENCODING 53
SWIDTH 507 0
DWIDTH 12 0
BBX 10 17 1 0
BITMAP
01C0
01C0
3FC0
3FC0
3000
7000
7000
7000
7E00
7F80
0780
03C0
01C0
01C0
C380
FF80
7F00
ENDCHAR
STARTCHAR six
ENCODING 54
SWIDTH 534 0
DWIDTH 13 0
BBX 11 16 1 0
BITMAP
0380
0F80
1E00
3800
7000
7000
6700
FFC0
F1C0
E0E0
E0E0
E0E0
70E0
71C0
3FC0
1F80
ENDCHAR
STARTCHAR seven
ENCODING 55
SWIDTH 475 0
DWIDTH 11 0
BBX 10 15 1 0
BITMAP
FFC0
FFC0
C1C0
C380
0380
0300
0700
0700
0E00
0E00
1C00
1C00
3800
3800
7800
ENDCHAR
STARTCHAR eight
ENCODING 56
SWIDTH 535 0
DWIDTH 13 0
BBX 11 16 1 0
BITMAP
0F00
3F80
73C0
71C0
61C0
71C0
7B80
1F00
3F80
73C0
E1E0
E0E0
E0E0
F1C0
7FC0
3F80
ENDCHAR
STARTCHAR nine
ENCODING 57
SWIDTH 535 0
DWIDTH 13 0
BBX 11 16 1 0
BITMAP
0E00
3F80
7BC0
71C0
E0C0
E0E0
E0E0
F0E0
7FE0
3FC0
01C0
01C0
0380
0F80
3F00
3C00
ENDCHAR
STARTCHAR colon
ENCODING 58
SWIDTH 226 0
DWIDTH 5 0
BBX 3 12 1 0
BITMAP
E0
E0
E0
00
00
00
00
00
00
E0
E0
E0
ENDCHAR
STARTCHAR semicolon
ENCODING 59
SWIDTH 241 0
DWIDTH 6 0
BBX 4 16 1 -4
BITMAP
60
70
70
20
00
00
00
00
00
60
70
E0
E0
C0
C0
40
ENDCHAR
STARTCHAR less
ENCODING 60
SWIDTH 535 0
DWIDTH 13 0
BBX 9 11 2 2
BITMAP
0080
0380
0F80
7E00
F800
E000
F800
3E00
0F80
0380
0080
ENDCHAR
STARTCHAR equal
ENCODING 61
SWIDTH 535 0
DWIDTH 13 0
BBX 9 7 2 4
BITMAP
FF80
FF80
FF80
0000
0000
FF80
FF80
ENDCHAR
STARTCHAR greater
ENCODING 62
SWIDTH 535 0
DWIDTH 13 0
BBX 9 11 2 2
BITMAP
8000
F000
FC00
3F00
0780
0380
0F80
3E00
F800
E000
8000
ENDCHAR
STARTCHAR question
ENCODING 63
SWIDTH 433 0
DWIDTH 10 0
BBX 9 17 1 0
BITMAP
1C00
FF00
FF00
C380
C380
0700
0F00
1E00
3C00
3800
3800
3800
3800
0000
1000
3800
3800
ENDCHAR
STARTCHAR at
ENCODING 64
SWIDTH 953 0
DWIDTH 23 0
BBX 19 21 2 -5
BITMAP
002000
07FE00
1F1F00
380380
7000C0
6070E0
E1FC60
C39C60
C71C60
C61C60
C61C60
C61C60
C61C60
C71CC0
C3FF80
E1EF00
700000
380000
1E0800
0FF800
00E000
ENDCHAR
STARTCHAR A
ENCODING 65
SWIDTH 662 0
DWIDTH 16 0
BBX 16 16 0 0
BITMAP
0FC0
0FC0
07C0
07E0
06E0
0E60
0E70
0C70
1C30
1C38
1FF8
3FFC
381C
301C
FC3F
FC3F
ENDCHAR
STARTCHAR B
ENCODING 66
SWIDTH 602 0
DWIDTH 14 0
BBX 13 16 1 0
BITMAP
FFC0
FFE0
71F0
7070
7070
7070
71E0
7FC0
7FF0
7070
7038
7038
7078
70F0
FFE0
FFC0
ENDCHAR
STARTCHAR C
ENCODING 67
SWIDTH 602 0
DWIDTH 14 0
BBX 12 16 1 0
BITMAP
0FE0
3FF0
7C70
7030
F030
E000
E000
E000
E000
E000
E000
F030
7030
7830
3FF0
0FF0
ENDCHAR
STARTCHAR D
ENCODING 68
SWIDTH 665 0
DWIDTH 16 0
BBX 14 16 1 0
BITMAP
FFC0
FFF0
71F8
7038
703C
701C
701C
701C
701C
701C
701C
7038
7038
70F0
FFE0
FF80
ENDCHAR
STARTCHAR E
ENCODING 69
SWIDTH 549 0
DWIDTH 13 0
BBX 11 16 1 0
BITMAP
FFE0
FFE0
70E0
70E0
7000
7000
7000
7FC0
7FC0
7000
7000
7000
7060
70E0
FFE0
FFE0
ENDCHAR
STARTCHAR F
ENCODING 70
SWIDTH 543 0
DWIDTH 13 0
BBX 12 16 1 0
BITMAP
FFF0
FFF0
70F0
7070
7000
7000
7000
7FC0
7FC0
7000
7000
7000
7000
7000
FC00
FC00
ENDCHAR
STARTCHAR G
ENCODING 71
SWIDTH 641 0
DWIDTH 15 0
BBX 14 16 1 0
BITMAP
0FF0
1FF0
3C70
7030
7030
E000
E000
E000
E0FC
E0FC
E038
F038
7038
7878
3FF8
1FE0
ENDCHAR
STARTCHAR H
ENCODING 72
SWIDTH 712 0
DWIDTH 17 0
BBX 15 16 1 0
BITMAP
FC3E
FC3E
701C
701C
701C
701C
701C
7FFC
7FFC
701C
701C
701C
701C
701C
FC7E
FC7E
ENDCHAR
STARTCHAR I
ENCODING 73
SWIDTH 307 0
DWIDTH 7 0
BBX 6 16 1 0
BITMAP
FC
FC
70
70
70
70
70
70
70
70
70
70
70
70
FC
FC
ENDCHAR
STARTCHAR J
ENCODING 74
SWIDTH 474 0
DWIDTH 11 0
BBX 10 16 1 0
BITMAP
0FC0
0FC0
0380
0380
0380
0380
0380
0380
0380
0380
0380
C380
C700
C700
FF00
FE00
ENDCHAR
STARTCHAR K
ENCODING 75
SWIDTH 622 0
DWIDTH 15 0
BBX 14 16 1 0
BITMAP
FCF8
FCF8
7070
70E0
71C0
7380
7780
7780
7F80
7FC0
79C0
70E0
70F0
7070
FCFC
FCFC
ENDCHAR
STARTCHAR L
ENCODING 76
SWIDTH 537 0
DWIDTH 13 0
BBX 11 16 1 0
BITMAP
FC00
FC00
7000
7000
7000
7000
7000
7000
7000
7000
7000
7060
7060
70E0
FFE0
FFE0
ENDCHAR
STARTCHAR M
ENCODING 77
SWIDTH 834 0
DWIDTH 20 0
BBX 20 16 0 0
BITMAP
7C03E0
7E03E0
1E07C0
3E0780
3F0FC0
3F0FC0
3B0DC0
3B9DC0
3B99C0
39D9C0
39F9C0
38F1C0
38F1C0
38E1C0
FC03F0
FC03F0
ENDCHAR
STARTCHAR N
ENCODING 78
SWIDTH 705 0
DWIDTH 17 0
BBX 15 16 1 0
BITMAP
F07E
F87E
7C1C
7C1C
7E1C
771C
771C
739C
739C
71DC
70FC
70FC
707C
703C
FC3C
FC1C
ENDCHAR
STARTCHAR O
ENCODING 79
SWIDTH 664 0
DWIDTH 16 0
BBX 14 16 1 0
BITMAP
0FC0
3FF0
7CF8
7038
F03C
E01C
E01C
E01C
E01C
E01C
E01C
F03C
7038
7878
3FF0
1FC0
ENDCHAR
STARTCHAR P
ENCODING 80
SWIDTH 590 0
DWIDTH 14 0
BBX 12 16 1 0
BITMAP
FFC0
FFE0
71F0
7070
7070
7070
7070
70F0
7FE0
7FC0
7000
7000
7000
7000
FC00
FC00
ENDCHAR
STARTCHAR Q
ENCODING 81
SWIDTH 664 0
DWIDTH 16 0
BBX 16 20 1 -4
BITMAP
0FC0
3FF0
7CF8
7038
F03C
E01C
E01C
E01C
E01C
E01C
E01C
E038
7038
7870
3FE0
0FC0
03F0
07FC
003F
000F
ENDCHAR
STARTCHAR R
ENCODING 82
SWIDTH 626 0
DWIDTH 15 0
BBX 14 16 1 0
BITMAP
FFC0
FFE0
71F0
7070
7070
7070
7070
7FE0
7FC0
7FC0
70E0
70E0
7070
7070
FCFC
FCFC
ENDCHAR
STARTCHAR S
ENCODING 83
SWIDTH 522 0
DWIDTH 13 0
BBX 11 16 1 0
BITMAP
3FC0
7FC0
F1C0
E0C0
E100
F000
FC00
7F00
1FC0
03C0
01E0
E0E0
E1E0
E3C0
FFC0
FF00
ENDCHAR
STARTCHAR T
ENCODING 84
SWIDTH 553 0
DWIDTH 13 0
BBX 13 16 0 0
BITMAP
FFF8
FFF8
E738
E738
0700
0700
0700
0700
0700
0700
0700
0700
0700
0700
1FC0
1FC0
ENDCHAR
STARTCHAR U
ENCODING 85
SWIDTH 659 0
DWIDTH 16 0
BBX 14 16 1 0
BITMAP
F87C
F87C
7038
7038
7038
7038
7038
7038
7038
7038
7038
7038
7038
7870
3FF0
1FC0
ENDCHAR
STARTCHAR V
ENCODING 86
SWIDTH 654 0
DWIDTH 16 0
BBX 16 16 0 0
BITMAP
FC3F
FC3F
381C
381C
3818
1C38
1C38
1C30
0E70
0E70
0E60
07E0
07E0
03C0
03C0
03C0
ENDCHAR
STARTCHAR W
ENCODING 87
SWIDTH 885 0
DWIDTH 21 0
BBX 21 16 0 0
BITMAP
FC00F8
FC70F8
387870
387860
38F860
38F8E0
18DCE0
1CDCC0
1CDCC0
1DCCC0
1D8FC0
0D8FC0
0F8F80
0F8780
0F8780
070780
ENDCHAR
STARTCHAR X
ENCODING 88
SWIDTH 621 0
DWIDTH 15 0
BBX 15 16 0 0
BITMAP
7E7C
7E7C
3C38
1C70
0EE0
0EE0
07C0
0380
07C0
0FC0
0EE0
1CF0
3870
3878
FCFE
FCFE
ENDCHAR
STARTCHAR Y
ENCODING 89
SWIDTH 570 0
DWIDTH 14 0
BBX 14 16 0 0
BITMAP
FCFC
FCFC
7870
3870
3CE0
1CE0
0FC0
0FC0
0780
0700
0700
0700
0700
0700
1FC0
1FC0
ENDCHAR
STARTCHAR Z
ENCODING 90
SWIDTH 533 0
DWIDTH 13 0
BBX 11 16 1 0
BITMAP
FFC0
FFC0
E1C0
C3C0
0380
0700
0F00
0E00
1C00
1C00
3800
78E0
70E0
E0E0
FFE0
FFE0
ENDCHAR
STARTCHAR bracketleft
ENCODING 91
SWIDTH 325 0
DWIDTH 8 0
BBX 5 21 2 -4
BITMAP
F8
F8
E0
E0
E0
E0
E0
E0
E0
E0
E0
E0
E0
E0
E0
E0
E0
E0
E0
F8
F8
ENDCHAR
STARTCHAR backslash
ENCODING 92
SWIDTH 440 0
DWIDTH 11 0
BBX 10 21 0 -3
BITMAP
E000
6000
7000
7000
3800
3800
3800
1C00
1C00
0C00
0E00
0E00
0700
0700
0700
0380
0380
0180
01C0
01C0
0100
ENDCHAR
STARTCHAR bracketright
ENCODING 93
SWIDTH 325 0
DWIDTH 8 0
BBX 5 21 1 -4
BITMAP
F8
F8
38
38
38
38
38
38
38
38
38
38
38
38
38
38
38
38
38
F8
F8
ENDCHAR
STARTCHAR asciicircum
ENCODING 94
SWIDTH 553 0
DWIDTH 13 0
BBX 11 9 1 7
BITMAP
0E00
0F00
1F00
1B80
3980
31C0
71C0
60E0
E0E0
ENDCHAR
STARTCHAR underscore
ENCODING 95
SWIDTH 500 0
DWIDTH 12 0
BBX 12 2 0 -4
BITMAP
FFF0
FFF0
ENDCHAR
STARTCHAR grave
ENCODING 96
SWIDTH 500 0
DWIDTH 12 0
BBX 4 6 4 13
BITMAP
40
C0
E0
70
30
10
ENDCHAR
STARTCHAR a
ENCODING 97
SWIDTH 567 0
DWIDTH 14 0
BBX 12 12 1 0
BITMAP
1FE0
7FE0
70E0
E0E0
E0E0
E0E0
E0E0
E0E0
E0E0
F1E0
7FF0
3EF0
ENDCHAR
STARTCHAR b
ENCODING 98
SWIDTH 556 0
DWIDTH 13 0
BBX 12 17 0 0
BITMAP
F800
F800
3800
3800
3800
3FC0
3FE0
3870
3870
3870
3870
3870
3870
3870
38F0
3FE0
3FC0
ENDCHAR
STARTCHAR c
ENCODING 99
SWIDTH 471 0
DWIDTH 11 0
BBX 10 12 1 0
BITMAP
3F80
7F80
F180
E180
E000
E000
E000
E000
E000
F080
7FC0
3F80
ENDCHAR
STARTCHAR d
ENCODING 100
SWIDTH 568 0
DWIDTH 14 0
BBX 12 17 1 0
BITMAP
03E0
03E0
00E0
00E0
00E0
1FE0
7FE0
70E0
E0E0
E0E0
E0E0
E0E0
E0E0
E0E0
F1E0
7FF0
3EF0
ENDCHAR
STARTCHAR e
ENCODING 101
SWIDTH 484 0
DWIDTH 12 0
BBX 10 12 1 0
BITMAP
1F80
7F80
71C0
E1C0
E380
FF80
FE00
E000
E000
F080
7FC0
3F80
ENDCHAR
STARTCHAR f
ENCODING 102
SWIDTH 370 0
DWIDTH 9 0
BBX 10 17 0 0
BITMAP
0FC0
1F80
3800
3800
3800
FF80
FF80
3800
3800
3800
3800
3800
3800
3800
3800
7E00
7E00
ENDCHAR
STARTCHAR g
ENCODING 103
SWIDTH 544 0
DWIDTH 13 0
BBX 11 17 1 -5
BITMAP
3FE0
7FE0
70E0
E0E0
E0E0
E0E0
E0E0
E0E0
E1E0
7FE0
7EE0
08C0
00C0
E1C0
E1C0
FF80
7F00
ENDCHAR
STARTCHAR h
ENCODING 104
SWIDTH 600 0
DWIDTH 14 0
BBX 13 17 1 0
BITMAP
F000
F000
7000
7000
7000
77C0
7FE0
78E0
70E0
7060
7060
7060
7060
7060
7060
F9F8
F9F8
ENDCHAR
STARTCHAR i
ENCODING 105
SWIDTH 296 0
DWIDTH 7 0
BBX 6 17 1 0
BITMAP
70
70
70
00
00
F0
F0
70
70
70
70
70
70
70
70
FC
FC
ENDCHAR
STARTCHAR j
ENCODING 106
SWIDTH 283 0
DWIDTH 7 0
BBX 7 22 -2 -5
BITMAP
0E
1E
0E
00
00
1E
1E
0E
0E
0E
0E
0E
0E
0E
0E
0E
0E
0E
0E
5E
FC
FC
ENDCHAR
STARTCHAR k
ENCODING 107
SWIDTH 556 0
DWIDTH 13 0
BBX 12 17 1 0
BITMAP
F000
F000
7000
7000
7000
73E0
73E0
70C0
71C0
7380
7F80
7F80
7380
71C0
71C0
FCF0
FCF0
ENDCHAR
STARTCHAR l
ENCODING 108
SWIDTH 298 0
DWIDTH 7 0
BBX 5 17 1 0
BITMAP
F0
F0
70
70
70
70
70
70
70
70
70
70
70
70
70
F8
F8
ENDCHAR
STARTCHAR m
ENCODING 109
SWIDTH 866 0
DWIDTH 21 0
BBX 19 12 1 0
BITMAP
F7DF80
FFFF80
78F1C0
70E1C0
70E1C0
70E1C0
70E1C0
70E1C0
70E1C0
70E1C0
F9F7E0
F9F7E0
ENDCHAR
STARTCHAR n
ENCODING 110
SWIDTH 600 0
DWIDTH 14 0
BBX 13 12 1 0
BITMAP
F7C0
FFE0
78E0
70E0
7060
7060
7060
7060
7060
7060
F9F8
F9F8
ENDCHAR
STARTCHAR o
ENCODING 111
SWIDTH 528 0
DWIDTH 13 0
BBX 11 12 1 0
BITMAP
3F80
7FC0
F1C0
E0E0
E0E0
E0E0
E0E0
E0E0
E0C0
F1C0
7F80
3F00
ENDCHAR
STARTCHAR p
ENCODING 112
SWIDTH 568 0
DWIDTH 14 0
BBX 12 17 1 -5
BITMAP
FFC0
FFE0
78E0
70F0
7070
7070
7070
7070
70E0
70E0
7FC0
7F80
7000
7000
7000
FC00
FC00
ENDCHAR
STARTCHAR q
ENCODING 113
SWIDTH 551 0
DWIDTH 13 0
BBX 12 17 1 -5
BITMAP
1FE0
7FE0
70E0
E0E0
E0E0
E0E0
E0E0
E0E0
E0E0
F1E0
7FE0
3EE0
00E0
00E0
00E0
03F0
03F0
ENDCHAR
STARTCHAR r
ENCODING 114
SWIDTH 462 0
DWIDTH 11 0
BBX 9 12 1 0
BITMAP
F780
FF80
7980
7180
7000
7000
7000
7000
7000
7000
FC00
FC00
ENDCHAR
STARTCHAR s
ENCODING 115
SWIDTH 451 0
DWIDTH 11 0
BBX 9 12 1 0
BITMAP
3F80
7F80
E180
E100
F000
7E00
3F80
0780
C380
C380
FF80
FE00
ENDCHAR
STARTCHAR t
ENCODING 116
SWIDTH 377 0
DWIDTH 9 0
BBX 9 15 0 0
BITMAP
1800
1800
3800
7F00
FF00
3800
3800
3800
3800
3800
3800
3800
3800
3F80
1F80
ENDCHAR
STARTCHAR u
ENCODING 117
SWIDTH 591 0
DWIDTH 14 0
BBX 13 12 1 0
BITMAP
F1E0
F1E0
70E0
70E0
70E0
70E0
70E0
70E0
70E0
71E0
7FF8
3F78
ENDCHAR
STARTCHAR v
ENCODING 118
SWIDTH 558 0
DWIDTH 13 0
BBX 13 12 0 0
BITMAP
FCF8
FCF8
3870
3860
3860
1CE0
1CC0
1CC0
0DC0
0F80
0F80
0780
ENDCHAR
STARTCHAR w
ENCODING 119
SWIDTH 795 0
DWIDTH 19 0
BBX 19 12 0 0
BITMAP
FC63E0
FCE3E0
38F180
38F180
38F180
39B380
19BB00
1DBB00
1F9B00
1F1F00
0F1F00
0F0E00
ENDCHAR
STARTCHAR x
ENCODING 120
SWIDTH 534 0
DWIDTH 13 0
BBX 12 12 0 0
BITMAP
7DF0
7DF0
38E0
1DC0
0F80
0F00
0F80
0F80
19C0
38E0
F9F0
F9F0
ENDCHAR
STARTCHAR y
ENCODING 121
SWIDTH 573 0
DWIDTH 14 0
BBX 11 17 1 -5
BITMAP
F1E0
F1E0
70E0
70E0
70E0
70E0
70E0
70E0
70E0
7FE0
3F60
0860
00E0
60E0
61E0
7FC0
7F80
ENDCHAR
STARTCHAR z
ENCODING 122
SWIDTH 483 0
DWIDTH 12 0
BBX 10 12 1 0
BITMAP
FFC0
FFC0
C380
C700
0E00
1E00
1C00
3800
71C0
F1C0
FFC0
FFC0
ENDCHAR
STARTCHAR braceleft
ENCODING 123
SWIDTH 340 0
DWIDTH 8 0
BBX 6 21 1 -4
BITMAP
3C
3C
70
70
70
30
30
30
70
F0
E0
70
70
30
70
70
70
70
70
3C
3C
ENDCHAR
STARTCHAR bar
ENCODING 124
SWIDTH 274 0
DWIDTH 7 0
BBX 3 20 2 -2
BITMAP
E0
E0
E0
E0
E0
E0
E0
E0
E0
E0
E0
E0
E0
E0
E0
E0
E0
E0
E0
E0
ENDCHAR
STARTCHAR braceright
ENCODING 125
SWIDTH 340 0
DWIDTH 8 0
BBX 6 21 1 -4
BITMAP
F0
F8
38
38
38
38
38
38
38
1C
1C
38
38
38
38
38
38
38
38
F8
F0
ENDCHAR
STARTCHAR asciitilde
ENCODING 126
SWIDTH 598 0
DWIDTH 14 0
BBX 12 4 1 5
BITMAP
3C20
7FF0
E7E0
41C0
ENDCHAR
ENDFONT
